HIERARCHY
ROOT root
{
	OFFSET 0.000000 0.000000 0.000000
	CHANNELS 6 Xposition Yposition Zposition Zrotation Yrotation Xrotation
	JOINT lhip
	{
		OFFSET 0.058581 -0.082280 -0.017664
		CHANNELS 3 Zrotation Yrotation Xrotation
		JOINT lknee
		{
			OFFSET 0.043451 -0.386469 0.008037
			CHANNELS 3 Zrotation Yrotation Xrotation
			JOINT lankle
			{
				OFFSET -0.014790 -0.426874 -0.037428
				CHANNELS 3 Zrotation Yrotation Xrotation
				JOINT ltoe
				{
					OFFSET 0.041054 -0.060286 0.122042
					CHANNELS 3 Zrotation Yrotation Xrotation
					End Site
					{
						OFFSET 0.000000 0.000000 0.000000
					}
				}
			}
		}
	}
	JOINT rhip
	{
		OFFSET -0.060310 -0.090513 -0.013543
		CHANNELS 3 Zrotation Yrotation Xrotation
		JOINT rknee
		{
			OFFSET -0.043257 -0.383688 -0.004843
			CHANNELS 3 Zrotation Yrotation Xrotation
			JOINT rankle
			{
				OFFSET 0.019056 -0.420046 -0.034562
				CHANNELS 3 Zrotation Yrotation Xrotation
				JOINT rtoe
				{
					OFFSET -0.034840 -0.062106 0.130323
					CHANNELS 3 Zrotation Yrotation Xrotation
					End Site
					{
						OFFSET 0.000000 0.000000 0.000000
					}
				}
			}
		}
	}
	JOINT lowerback
	{
		OFFSET 0.004439 0.124404 -0.038385
		CHANNELS 3 Zrotation Yrotation Xrotation
		JOINT upperback
		{
			OFFSET 0.004488 0.137956 0.026820
			CHANNELS 3 Zrotation Yrotation Xrotation
			JOINT chest
			{
				OFFSET -0.002265 0.056032 0.002855
				CHANNELS 3 Zrotation Yrotation Xrotation
				JOINT lowerneck
				{
					OFFSET -0.013390 0.211636 -0.033468
					CHANNELS 3 Zrotation Yrotation Xrotation
					JOINT upperneck
					{
						OFFSET 0.010113 0.088937 0.050410
						CHANNELS 3 Zrotation Yrotation Xrotation
						End Site
						{
							OFFSET 0.000000 0.000000 0.000000
						}
					}
				}
				JOINT lclavicle
				{
					OFFSET 0.071702 0.114000 -0.018898
					CHANNELS 3 Zrotation Yrotation Xrotation
					JOINT lshoulder
					{
						OFFSET 0.122921 0.045205 -0.019046
						CHANNELS 3 Zrotation Yrotation Xrotation
						JOINT lelbow
						{
							OFFSET 0.255332 -0.015649 -0.022946
							CHANNELS 3 Zrotation Yrotation Xrotation
							JOINT lwrist
							{
								OFFSET 0.265709 0.012698 -0.007375
								CHANNELS 3 Zrotation Yrotation Xrotation
								End Site
								{
									OFFSET 0.000000 0.000000 0.000000
								}
							}
						}
					}
				}
				JOINT rclavicle
				{
					OFFSET -0.082954 0.112472 -0.023707
					CHANNELS 3 Zrotation Yrotation Xrotation
					JOINT rshoulder
					{
						OFFSET -0.113228 0.046853 -0.008472
						CHANNELS 3 Zrotation Yrotation Xrotation
						JOINT relbow
						{
							OFFSET -0.260127 -0.014369 -0.031269
							CHANNELS 3 Zrotation Yrotation Xrotation
							JOINT rwrist
							{
								OFFSET -0.269108 0.006794 -0.006027
								CHANNELS 3 Zrotation Yrotation Xrotation
								End Site
								{
									OFFSET 0.000000 0.000000 0.000000
								}
							}
						}
					}
				}
			}
		}
	}
}
MOTION
Frames: 11
Frame Time: 0.033333
0.283709 -0.137938 1.024973 170.356599 1.598953 89.813453 -0.251264 2.964562 -9.780731 -6.721515 -6.973340 7.066736 5.084993 9.543437 -9.116114 0.000000 -0.000000 0.000000 0.933828 1.050844 -12.108786 6.469365 -7.691120 34.037317 7.028250 -6.907334 -10.381997 0.000000 -0.000000 0.000000 -1.617416 0.432060 16.031158 3.037133 -0.912731 -7.325302 0.988192 -1.593265 0.241718 6.231562 2.082349 8.005243 -0.275502 -1.738295 22.662937 -25.691368 0.355089 -0.906110 -44.180974 -8.837711 6.662221 12.501095 -28.164030 -4.739833 14.839613 -9.577881 2.413135 23.828364 0.305892 -2.412482 48.734379 7.379728 16.548280 -10.984276 49.115007 -1.938618 -5.946101 7.673224 -11.084464 
0.283574 -0.131508 1.019509 170.307062 1.873484 89.809950 -0.273814 2.476441 -9.599684 -6.632848 -7.230322 7.567236 5.817768 10.548557 -11.142336 0.000000 -0.000000 0.000000 0.952893 3.138528 -14.182128 6.608427 -7.696277 37.745817 7.714479 -7.165504 -12.865494 0.000000 -0.000000 0.000000 -2.093602 -0.205320 16.482828 3.324996 -0.671554 -7.528275 1.160873 -1.640560 0.454793 6.785150 2.603644 6.831112 -0.552934 -1.925790 22.050793 -25.698702 0.528827 -1.022772 -44.869832 -9.311075 6.554361 13.499205 -28.239365 -6.613363 15.386787 -9.575034 1.848790 24.079471 0.365986 -2.716332 48.988219 8.115150 16.828256 -12.336433 48.669379 -3.805381 -6.245206 7.682699 -11.372692 
0.283417 -0.127664 1.017389 170.485712 2.020749 90.157154 -0.295165 1.756488 -10.090118 -6.557301 -7.216397 8.303147 5.737763 11.052191 -12.355724 0.000000 -0.000000 0.000000 1.033706 5.000655 -16.692625 6.630186 -6.924895 39.484101 7.748697 -6.696032 -16.132205 0.000000 -0.000000 0.000000 -2.262407 -0.703726 16.838997 3.454892 -0.607791 -7.696741 1.293421 -1.827153 0.528727 6.921046 3.290247 5.816767 -0.700502 -2.202518 20.978178 -25.456942 0.143476 -0.987865 -45.746509 -9.715893 6.909015 14.362525 -27.580250 -8.155414 16.154389 -9.339447 0.806181 24.187588 0.732390 -2.673943 49.255812 8.357515 17.036388 -12.893749 47.510108 -4.618926 -7.014837 7.659317 -11.728569 
0.283056 -0.124888 1.018069 170.666949 2.115726 90.706177 -0.448496 1.437823 -10.434264 -6.191943 -7.549180 8.259342 5.216495 11.255131 -12.796958 0.000000 -0.000000 0.000000 1.099525 6.084445 -18.673524 6.334483 -5.533093 37.797888 7.267175 -6.168497 -19.406598 0.000000 -0.000000 0.000000 -1.882544 -1.028627 16.943351 3.302388 -0.613814 -7.892360 1.350222 -1.995996 0.582852 6.541268 3.837303 5.049382 -0.709355 -2.309854 19.599769 -24.947450 -0.534826 -0.903147 -46.751182 -10.196242 7.438552 14.691456 -26.555024 -8.463228 16.972275 -9.049102 -0.119911 23.917925 1.233190 -2.315640 49.532438 8.081965 17.031557 -12.272575 45.687092 -3.899589 -7.991561 7.648790 -11.826375 
0.282700 -0.121708 1.020210 170.755975 2.111590 91.311336 -0.771804 1.431704 -10.136978 -5.544422 -8.089450 6.967021 4.714427 11.300919 -12.595137 0.000000 -0.000000 0.000000 1.069631 6.317785 -19.585669 5.565066 -4.168678 33.174430 6.699929 -6.480944 -21.462503 0.000000 -0.000000 0.000000 -1.237923 -1.208830 16.622342 2.981061 -0.597788 -7.859034 1.401146 -2.070390 0.443175 5.741604 3.978138 4.605780 -0.649092 -2.126437 18.123854 -24.524033 -1.134577 -0.732039 -47.531862 -10.809406 7.882501 14.435662 -25.805601 -7.623793 17.159412 -8.831937 -0.577733 23.435369 1.643406 -1.721621 49.595160 7.426093 16.904409 -10.697623 43.394299 -2.013268 -8.363836 7.683106 -11.301972 
0.282990 -0.117304 1.022169 170.842301 1.932056 91.859276 -1.082775 1.539640 -9.039634 -4.977412 -8.526676 4.437768 4.303858 11.110262 -11.886347 0.000000 -0.000000 0.000000 0.895052 5.805483 -19.398702 4.676515 -3.390997 27.529001 6.297645 -7.226815 -21.393077 0.000000 -0.000000 0.000000 -0.714739 -1.292949 15.888350 2.639072 -0.579180 -7.504789 1.486400 -2.079262 0.018894 4.767722 3.737192 4.481354 -0.575062 -1.840276 16.787953 -24.320249 -1.470703 -0.494052 -48.021541 -11.407046 8.270771 13.847194 -25.646448 -6.288830 16.209863 -8.448619 -1.026945 23.026151 1.819355 -1.057786 49.480398 6.597660 16.769015 -8.860016 40.657160 0.241023 -7.692203 7.709313 -9.912550 
0.284313 -0.111696 1.022812 171.035438 1.480923 92.312615 -1.330063 1.760393 -7.160431 -4.747985 -8.815844 0.832212 4.003653 10.643078 -10.843017 0.000000 -0.000000 0.000000 0.483012 4.613577 -18.295849 4.172510 -3.178126 22.515374 5.936748 -7.467672 -19.123596 0.000000 -0.000000 0.000000 -0.532603 -1.273099 14.822001 2.306640 -0.636127 -6.914985 1.543688 -2.058475 -0.631793 3.834134 3.350768 4.558855 -0.534247 -1.704586 15.713385 -24.211974 -1.562779 -0.297072 -48.278229 -11.953264 8.598933 13.152339 -25.902411 -4.846021 14.608816 -7.989991 -1.610588 22.844717 1.734393 -0.475894 49.499822 5.753635 16.608459 -7.354636 37.373246 2.268520 -6.506750 7.625529 -8.067788 
0.286673 -0.105361 1.021414 171.401495 0.827283 92.597589 -1.491515 2.244947 -4.722765 -4.812537 -9.104111 -3.346901 3.531544 9.898891 -9.457954 0.000000 -0.000000 0.000000 -0.155351 2.892759 -16.441597 4.150257 -3.440882 18.398051 5.318666 -6.845954 -16.080827 0.000000 -0.000000 0.000000 -0.581841 -1.169360 13.851613 1.918060 -0.811008 -6.489066 1.541309 -1.982124 -1.295152 2.978137 3.094882 4.530305 -0.510265 -1.891977 15.081811 -23.983639 -1.629022 -0.262245 -48.529413 -12.476640 8.657786 12.499846 -26.224974 -3.385772 13.001898 -7.837058 -1.874692 22.689310 1.597742 -0.057677 50.043318 4.793500 16.215103 -6.618054 33.801685 3.720991 -5.263135 7.311444 -6.407007 
0.289566 -0.098701 1.018943 171.879910 0.182700 92.406144 -1.590968 3.320920 -2.012387 -4.857772 -9.921913 -7.009454 3.327086 9.043557 -7.763489 0.000000 -0.000000 0.000000 -0.971786 0.896787 -13.728363 4.845910 -3.485063 14.580892 4.533937 -6.245487 -14.029230 0.000000 -0.000000 0.000000 -0.353319 -1.216662 13.550201 1.274449 -0.714672 -6.405148 1.383120 -2.283772 -1.708376 2.496364 3.439164 3.640669 -1.046484 -2.534933 15.465956 -23.754788 -1.217686 -0.524128 -48.777022 -12.798130 7.494534 12.340787 -27.983919 -1.421111 4.296201 -4.439875 -1.806381 22.476585 1.599583 0.231814 51.320723 3.841946 16.124904 -8.025793 30.808380 1.496218 1.061681 4.480508 -2.914163 
0.292714 -0.093127 1.017054 172.295680 -0.146933 92.403433 -1.666013 3.920472 -0.871332 -4.735689 -10.117366 -8.451817 2.912060 8.606111 -6.916579 0.000000 -0.000000 0.000000 -1.474896 -0.070837 -11.305102 5.328987 -3.796328 10.925126 4.436304 -6.000084 -12.838955 0.000000 -0.000000 0.000000 -0.085024 -1.093997 13.201679 0.881169 -0.846859 -6.526039 1.214335 -2.205557 -1.826309 1.854543 3.267152 3.172348 -1.075086 -2.738315 15.226625 -23.936855 -1.041506 -0.930021 -49.184914 -13.548628 7.099552 12.399117 -28.234468 -1.320969 2.994720 -4.043470 -1.623251 22.709106 1.430769 0.268539 51.869870 3.070658 15.798178 -8.435721 28.070597 1.145714 2.258719 3.582006 -1.801235 
0.295300 -0.088822 1.016867 172.527228 -0.273211 92.672315 -2.128497 3.675906 -1.345966 -4.322211 -9.566723 -7.831779 3.140325 8.856889 -6.455970 0.000000 -0.000000 0.000000 -1.739239 -0.406747 -9.498662 5.738134 -3.745681 7.710604 4.781508 -6.299171 -11.542044 0.000000 -0.000000 0.000000 0.219223 -0.911906 12.679838 0.640526 -1.010397 -6.548340 1.045875 -2.043041 -1.845068 1.339766 2.865736 2.830829 -0.913341 -2.673561 14.586179 -24.347791 -0.726075 -1.212496 -49.736342 -14.251085 6.848371 12.648604 -28.611111 -1.868081 2.906911 -3.793098 -1.690561 22.832746 1.131039 0.256192 52.404214 2.813262 15.505993 -8.796838 26.055390 0.650239 2.541883 2.987225 -1.376838 
